<svg xmlns="http://www.w3.org/2000/svg" viewBox="0 0 146.93 93.02"><defs><style>.cls-1{stroke:#000;stroke-miterlimit:10;}</style></defs><g id="Layer_2" data-name="Layer 2"><g id="Layer_1-2" data-name="Layer 1"><path class="cls-1" d="M122.5,8.48a5.51,5.51,0,0,0-1.93.38V8.48h-1c0-4.41-7.48-8-16.71-8C95.59.5,89.42,2.7,87.11,5.78a7,7,0,0,1-5.63,2.7h-16a7,7,0,0,1-5.63-2.7C57.51,2.7,51.34.5,44.09.5c-9.23,0-16.72,3.57-16.72,8h-1v.38a5.42,5.42,0,0,0-1.92-.38C11.21,8.48.5,55.38.5,68.6A23.92,23.92,0,0,0,24.43,92.52C34,92.52,29.67,79.87,35.78,73a7.29,7.29,0,0,1,8.27-1.74,21.64,21.64,0,0,0,19.44-1.52,7.36,7.36,0,0,1,3.84-1.11H79.6a7.36,7.36,0,0,1,3.84,1.11,21.64,21.64,0,0,0,19.44,1.52A7.29,7.29,0,0,1,111.15,73c6.11,6.9,1.74,19.55,11.35,19.55A23.92,23.92,0,0,0,146.43,68.6C146.43,55.38,135.72,8.48,122.5,8.48ZM55.15,23.68v7.83H48.86l-4.09-3.92,4.09-3.91ZM38.72,15.21h7.83v6.28l-3.91,4.1-3.92-4.1ZM30.13,31.64V23.8h6.41l4.09,3.92-4.09,3.92Zm8.72,8.59V33.82l3.91-4.09,3.92,4.09v6.41ZM52.66,62.09a10,10,0,1,1,10-10A10,10,0,0,1,52.66,62.09Zm56.09-45.65a4.21,4.21,0,1,1-4.2,4.2A4.2,4.2,0,0,1,108.75,16.44Zm-8.41,8.41a4.21,4.21,0,1,1-4.21,4.21A4.21,4.21,0,0,1,100.34,24.85ZM94.82,62.09a10,10,0,1,1,10-10A10,10,0,0,1,94.82,62.09Zm13.93-20.41A4.21,4.21,0,1,1,113,37.47,4.21,4.21,0,0,1,108.75,41.68Zm8.42-8.42a4.21,4.21,0,1,1,4.2-4.2A4.2,4.2,0,0,1,117.17,33.26Z"/></g></g></svg>