<svg xmlns="http://www.w3.org/2000/svg" viewBox="0 0 55.75 107.81"><defs><style>.cls-1,.cls-2{fill:none;stroke:#000;stroke-miterlimit:10;}.cls-1{stroke-width:3px;}.cls-2{stroke-width:2px;}</style></defs><g id="Layer_2" data-name="Layer 2"><g id="Layer_1-2" data-name="Layer 1"><path class="cls-1" d="M54.25,27.87a26.37,26.37,0,1,0-47,16.37,29.73,29.73,0,0,1,6.43,18.47V78.25H42.12V62.72A30.81,30.81,0,0,1,48.77,44,26.27,26.27,0,0,0,54.25,27.87Z"/><line class="cls-1" x1="35.65" y1="78.25" x2="35.65" y2="47.39"/><line class="cls-1" x1="20.09" y1="78.25" x2="20.09" y2="47.39"/><path class="cls-2" d="M27.9,54.12c0,2.81-1.77,5.08-4,5.08s-4-2.27-4-5.08"/><path class="cls-2" d="M35.5,54.12c0-2.81-1.7-5.08-3.8-5.08s-3.8,2.27-3.8,5.08"/><rect x="10.98" y="66.46" width="33.79" height="41.34" rx="6.69"/></g></g></svg>